<?xml version="1.0" encoding="UTF-8"?>
<svg xmlns="http://www.w3.org/2000/svg" width="400" height="400" viewBox="0 0 400 400" fill="none" version="1.2">
  <path d="M0 0H400V400H0V0Z" fill="#1C1C1C"></path>
  <path d="M171.485 91.5147L103.515 159.485C101.264 161.736 100 164.788 100 167.971V257C100 260.314 102.686 263 106 263H144C147.314 263 150 265.686 150 269V307C150 310.314 152.686 313 156 313H244C247.314 313 250 310.314 250 307V269C250 265.686 252.686 263 256 263H294C297.314 263 300 260.314 300 257V144.111C300 140.798 297.314 138.111 294 138.111H256C252.686 138.111 250 135.425 250 132.111V94C250 90.6863 247.314 88 244 88H179.971C176.788 88 173.736 89.2643 171.485 91.5147Z" fill="white"></path>
  <path d="M153 147C153 143.686 155.686 141 159 141H241C244.314 141 247 143.686 247 147V254C247 257.314 244.314 260 241 260H159C155.686 260 153 257.314 153 254V147Z" fill="#1C1C1C"></path>
  <title>Title</title>
</svg>
